<svg height="512pt" viewBox="0 0 512 511" width="512pt" xmlns="http://www.w3.org/2000/svg">
<path  fill="#fff" d="m504.265625 256.5c0 137.113281-111.152344 248.265625-248.265625 248.265625s-248.265625-111.152344-248.265625-248.265625 111.152344-248.265625 248.265625-248.265625 248.265625 111.152344 248.265625 248.265625zm0 0"/>
<path fill="#000" d="m431.011719 81.320312c-46.796875-46.792968-109.011719-72.5625-175.1875-72.5625-66.816407 0-121.175781 54.894532-121.175781 122.371094 0 67.476563 54.359374 122.371094 121.175781 122.371094 68.746093 0 124.675781 56.476562 124.675781 125.894531 0 37.660157-16.566406 73.0625-45.445312 97.128907l7.132812 12.3125c33.429688-12.40625 63.3125-31.632813 88.824219-57.140626 46.792969-46.796874 72.5625-109.011718 72.5625-175.1875 0-66.179687-25.769531-128.394531-72.5625-175.1875zm0 0" />
</svg>