<?xml version="1.0" encoding="iso-8859-1"?>
<!-- Generator: Adobe Illustrator 19.0.0, SVG Export Plug-In . SVG Version: 6.00 Build 0)  -->
<svg version="1.1" id="Layer_1" xmlns="http://www.w3.org/2000/svg" xmlns:xlink="http://www.w3.org/1999/xlink" x="0px" y="0px"
	 viewBox="0 0 496 496" style="enable-background:new 0 0 496 496;" xml:space="preserve">
<polygon fill-opacity="0" style="fill:#FF8B0D;" points="248,57.6 281.6,162.4 375.2,104 333.6,206.4 442.4,221.6 345.6,272.8 419.2,354.4 
	311.2,331.2 315.2,441.6 248,354.4 180,441.6 184.8,331.2 76.8,354.4 150.4,272.8 53.6,221.6 162.4,206.4 120.8,104 214.4,162.4 "/>
<polygon fill-opacity="0" style="fill:#FFAE0B;" points="248,57.6 214.4,162.4 120.8,104 162.4,206.4 53.6,221.6 150.4,272.8 76.8,354.4 108,348 
	312.8,143.2 281.6,162.4 "/>
<path style="fill:#000;" d="M334.4,492L248,381.6L161.6,492l5.6-140L29.6,381.6l94.4-104L0,212l139.2-19.2L86.4,62.4l118.4,74.4
	L248,4l43.2,133.6l118.4-74.4l-52.8,129.6L496,212l-124,65.6l94.4,104L328.8,352L334.4,492z M248,327.2l48.8,63.2l-3.2-80l78.4,16.8
	L318.4,268l70.4-37.6l-79.2-11.2l30.4-74.4l-68,42.4L248,112l-24.8,76l-68-42.4l30.4,74.4l-79.2,11.2l70.4,37.6L123.2,328l78.4-16.8
	l-3.2,80L248,327.2z"/>
<polygon style="fill:#000;" points="124,327.2 177.6,268 106.4,230.4 185.6,220 156,145.6 223.2,188 248,112 271.2,184 362.4,92 
	291.2,137.6 248,4 204.8,137.6 86.4,62.4 139.2,192.8 0,212 124,277.6 29.6,381.6 85.6,369.6 128.8,326.4 "/>
<g>
</g>
<g>
</g>
<g>
</g>
<g>
</g>
<g>
</g>
<g>
</g>
<g>
</g>
<g>
</g>
<g>
</g>
<g>
</g>
<g>
</g>
<g>
</g>
<g>
</g>
<g>
</g>
<g>
</g>
</svg>