<svg xmlns="http://www.w3.org/2000/svg" xmlns:xlink="http://www.w3.org/1999/xlink" version="1.1" width="1063.333333333334" height="868.6666666666665" style="enable-background:new 0 0 920.825 920.825;" xml:space="preserve"><rect id="backgroundrect" width="100%" height="100%" x="0" y="0" fill="none" stroke="none"/>
















<g class="currentLayer" style=""><title>Layer 1</title><g id="svg_1" class="" opacity="1" fill="#919191" fill-opacity="1">
	<g fill="#919191" id="svg_2" opacity="1" fill-opacity="1">
		<path d="M855.2,665.162l23.7-176.6c-23.7,9.2-55,17.5-93.2,24.6c-89.2,16.7-207.5,25.9-333.2,25.9s-244.1-9.2-333.2-25.9    c-38-7.1-69.1-15.3-92.7-24.399l24.2,176.3c1,5.4,4.9,13,9.1,16.6c31.9,26.801,100.7,59,235.6,73.301v-146c0-13.801,11.2-25,25-25    h263.8c13.8,0,25,11.199,25,25v146.3c135.5-13.9,203.8-45.601,236.7-73.601C850.3,678.162,854.2,670.562,855.2,665.162z" id="svg_3" opacity="1" fill="#919191" fill-opacity="1"/>
		<path d="M898.5,343.462c-2.9,1.5-6,3-9.3,4.4c-24.601,10.9-59.4,20.601-103.5,28.9c-89.2,16.7-207.5,25.899-333.2,25.899    s-244.1-9.199-333.2-25.899c-44.1-8.3-78.9-18-103.5-28.9c-3.2-1.399-6.3-2.9-9.2-4.4l15.2,110.5c1.9,0.899,3.9,1.899,6.2,2.899    c22.2,9.8,55.6,19.101,96.8,26.8c87.4,16.4,203.8,25.4,327.7,25.4s240.3-9,327.7-25.4c41.2-7.699,74.7-17,96.8-26.8    c2.4-1.1,4.6-2.1,6.6-3.1L898.5,343.462z" id="svg_4" opacity="1" fill="#919191" fill-opacity="1"/>
		<path d="M28,320.462c22.2,9.8,55.6,19.1,96.8,26.8l0,0c1-0.601,2.1-1.101,3.4-1.4c72.9-17,193.7-27.1,323.1-27.1    c131.101,0,252.8,10.3,325.5,27.7c0.9,0.199,1.8,0.6,2.601,1c0.3,0,0.5-0.101,0.8-0.101c41.2-7.7,74.7-17,96.8-26.8    c18-8,24.9-14.7,27-18.2c0.6-1,0.8-1.7,0.8-2.2c0-2.2-5-10.3-27.8-20.4c-9.8-4.3-21.8-8.6-35.7-12.6v-15.6v-15.6v-19.4l76-45.2    c4.7-2.8,4.7-7.4,0-10.2l-84.8-49.8c-1.9-0.8-4-1.3-6.2-1.3c-8.3,0-15,6.7-15,15v103.5v15.4v15.4c-9.8-2.3-20.2-4.4-31.1-6.5    c-83.601-15.7-193.601-24.6-311.5-25.4v-15v-15v-15l76-45.2c4.7-2.8,4.7-7.4,0-10.2l-84.9-49.7c-1.899-0.8-4-1.3-6.2-1.3    c-8.3,0-15,6.7-15,15v106.4v15v15c-118.699,0.6-229.8,9.6-313.899,25.4c-10.1,1.9-19.6,3.9-28.7,5.9v-15.4v-15.4v-11.6l76-45.2    c4.7-2.8,4.7-7.4,0-10.2l-84.9-49.7c-1.9-0.8-4-1.3-6.2-1.3c-8.3,0-15,6.7-15,15v110.2v15.5v15.6c-14.9,4.2-27.8,8.7-38.1,13.3    C5,289.663,0,297.763,0,299.962c0,0.5,0.2,1.2,0.8,2.2C3.1,305.862,10,312.462,28,320.462z" id="svg_5" opacity="1" fill="#919191" fill-opacity="1"/>
		<path d="M713.2,357.662c-70.101-10.3-163.101-16.1-261.8-16.1c-98,0-190.7,5.8-260.8,16c76.4,9.9,167,15.2,261.9,15.2    C547,372.662,637,367.463,713.2,357.662z" id="svg_6" opacity="1" fill="#919191" fill-opacity="1"/>
		<path d="M325.6,614.062v143.8v28.8l-15,5l-15,5l-19.199,6.301c-5.2,1.699-9.5,7.6-9.5,13.1v18.7c0,5.5,4.5,10,10,10H628    c5.5,0,10-4.5,10-10v-18.7c0-5.5-4.3-11.4-9.5-13.1l-19.2-6.301l-15-5l-15-5v-28.6v-144h-36.6v128.9H362.2v-128.9H325.6z" id="svg_7" opacity="1" fill="#919191" fill-opacity="1"/>
	</g>
</g><g id="svg_8">
</g><g id="svg_9">
</g><g id="svg_10">
</g><g id="svg_11">
</g><g id="svg_12">
</g><g id="svg_13">
</g><g id="svg_14">
</g><g id="svg_15">
</g><g id="svg_16">
</g><g id="svg_17">
</g><g id="svg_18">
</g><g id="svg_19">
</g><g id="svg_20">
</g><g id="svg_21">
</g><g id="svg_22">
</g><path fill="" stroke-dashoffset="" fill-rule="nonzero" opacity="1" marker-start="" marker-mid="" marker-end="" id="svg_23" d="M986.5532306727498,298.31036986419747 L1060.2798222460563,259.32241665778224 C1058.8307471397034,244.87082978365424 1056.030507406532,230.850049022289 1052.525312216292,217.08383550932194 L970.6329865959598,205.7458019046826 C963.54426783145,188.67021416195166 954.1840259264699,172.82829846919014 943.1788879544571,158.2983832110324 L974.3927490350006,81.5169846561563 C964.1317307122721,71.51053358222981 953.0482643562336,62.38527682953708 941.3773351193703,53.98455763042426 L871.8413120974648,97.63304969342386 C855.5294261001279,89.05609162994273 837.964285956305,82.55483574605415 819.5179514910495,78.3642671944512 L794.3941222773349,0.5058533576636819 C787.2662393206098,-0.022863235237252866 780.1383563638856,-0.5907440201526697 772.8733987346029,-0.5907440201526697 S758.5001402445032,-0.042445331346470994 751.3526751918719,0.5058533576636819 L726.4638311306477,77.67889383328975 C707.5279442645057,81.73238771253972 689.571162200136,88.31197198045692 672.8480521859389,96.98684052427734 L604.3890444461489,53.98455763042426 C592.7376973051912,62.38527682953708 581.6542309487471,71.51053358222981 571.3932126264239,81.5169846561563 L601.7454614814366,156.16393474311565 C589.9178754761125,171.34005917062132 580.0093348821201,188.06316918481946 572.5681383884717,206.09827963341877 L493.2606494451324,217.06425341321335 C489.77503635079773,230.83046692618154 486.9552145217196,244.83166559143694 485.5257215112746,259.302834561675 L556.7066405998034,296.95920523778045 C557.5095065372103,316.7958685214678 560.7992986712703,336.0059047323184 566.615181193796,354.09976146904046 L512.9210738646535,413.4726766483557 C519.1677624999438,426.41644212780704 526.1194065927041,438.98814778261794 534.1676480630819,450.7765695959281 L613.220569758026,433.79889233313247 C626.183917333588,447.89800147852384 640.9488177442345,460.25430407695205 657.2411216456669,470.476158207464 L654.2450609522209,551.3697969297116 C667.2279906236882,557.2248436442512 680.7200547919468,562.1203676531258 694.6233429770658,566.0367868602226 L744.6360162516011,501.7487655759271 C753.5067057556963,502.8845271459618 762.4948878360358,503.648228891353 771.6593087803374,503.648228891353 C781.5874314706409,503.648228891353 791.3001511039541,502.7474524738101 800.8562139692094,501.4354520394071 L851.1234544921408,566.0759510522367 C865.0463247731657,562.1595318451386 878.5188068455195,557.2640078364675 891.5017365173904,551.408961121725 L888.4469295358222,469.06624729292423 C903.9755316916595,459.02063202678164 918.0550587411462,446.9972250609803 930.4701076276973,433.4072504125844 L1011.5791494065295,450.8157337877402 C1019.6273908769067,439.0273119746332 1026.5790349692656,426.4751884159308 1032.8257236045545,413.51184084057195 L977.3888097284477,352.20029815361454 C982.7151398500855,335.0659641225583 985.6916184472201,316.97210738603826 986.5532306727498,298.31036986419747 zM864.0280557795785,391.9715352015294 L829.0740143563046,414.7259307948366 L807.5728729094801,381.69093478309867 C796.3914960731009,385.9989959107445 784.348507011597,388.60341468344166 771.6593087803374,388.60341468344166 C716.2223949042315,388.60341468344166 671.3010665988429,343.6625042821462 671.3010665988429,288.24517250194697 C671.3010665988429,232.80825862563665 716.2223949042315,187.88693032045092 771.6593087803374,187.88693032045092 C827.0766405605391,187.88693032045092 872.0175509618327,232.80825862563665 872.0175509618327,288.24517250194697 C872.0175509618327,315.93425629614126 860.7970099336421,340.9797571252208 842.6639890049048,359.1519422461737 L864.0280557795785,391.9715352015294 z" style="color: rgb(0, 0, 0);" class=""/></g></svg>